<svg width="100" height="121" viewBox="0 0 100 121" fill="none" xmlns="http://www.w3.org/2000/svg">
<path fill-rule="evenodd" clip-rule="evenodd" d="M85.3438 35.375L49.9688 0L14.6563 35.375C7.66037 42.3663 2.89508 51.2754 0.963158 60.9753C-0.96876 70.6753 0.0194926 80.7303 3.80291 89.8685C7.58633 99.0067 13.9949 106.818 22.2181 112.313C30.4413 117.809 40.1096 120.742 50 120.742C59.8905 120.742 69.5588 117.809 77.7819 112.313C86.0051 106.818 92.4137 99.0067 96.1971 89.8685C99.9805 80.7303 100.969 70.6753 99.0369 60.9753C97.105 51.2754 92.3397 42.3663 85.3438 35.375ZM52.6987 61.872L79.8315 61.77C80.6619 61.7669 81.0499 62.7981 80.424 63.3442L33.7828 104.045C33.0591 104.677 31.9841 103.881 32.3747 103.003L44.9751 74.6777C45.2379 74.087 44.8094 73.4204 44.1638 73.4149L19.3934 73.2029C18.5728 73.1959 18.1922 72.1802 18.8056 71.6344L65.5003 30.0883C66.2413 29.4289 67.3452 30.2836 66.8942 31.1675L51.897 60.5661C51.5916 61.1647 52.0275 61.8745 52.6987 61.872Z" fill="#62CDFA"/>
</svg>
